<mxfile host="app.diagrams.net" modified="2021-03-29T10:00:36.028Z" agent="5.0 (Windows NT 10.0; Win64; x64) AppleWebKit/537.36 (KHTML, like Gecko) Chrome/89.0.4389.90 Safari/537.36" etag="nlDgKU15JV5qLxklqOVn" version="14.5.3" type="github">
  <diagram id="C5RBs43oDa-KdzZeNtuy" name="Page-1">
    <mxGraphModel dx="1422" dy="762" grid="1" gridSize="10" guides="1" tooltips="1" connect="1" arrows="1" fold="1" page="1" pageScale="1" pageWidth="1169" pageHeight="827" math="0" shadow="0">
      <root>
        <mxCell id="WIyWlLk6GJQsqaUBKTNV-0" />
        <mxCell id="WIyWlLk6GJQsqaUBKTNV-1" parent="WIyWlLk6GJQsqaUBKTNV-0" />
        <mxCell id="KDvS2yM697CIPFRJHkad-46" style="edgeStyle=orthogonalEdgeStyle;rounded=0;orthogonalLoop=1;jettySize=auto;html=1;exitX=0.5;exitY=1;exitDx=0;exitDy=0;entryX=0.5;entryY=0;entryDx=0;entryDy=0;entryPerimeter=0;" edge="1" parent="WIyWlLk6GJQsqaUBKTNV-1" source="KDvS2yM697CIPFRJHkad-1" target="KDvS2yM697CIPFRJHkad-4">
          <mxGeometry relative="1" as="geometry" />
        </mxCell>
        <mxCell id="KDvS2yM697CIPFRJHkad-1" value="SQL 품질 점검" style="rounded=1;whiteSpace=wrap;html=1;absoluteArcSize=1;arcSize=14;strokeWidth=2;" vertex="1" parent="WIyWlLk6GJQsqaUBKTNV-1">
          <mxGeometry x="150" y="10" width="100" height="20" as="geometry" />
        </mxCell>
        <mxCell id="KDvS2yM697CIPFRJHkad-7" value="Yes" style="edgeStyle=orthogonalEdgeStyle;rounded=0;orthogonalLoop=1;jettySize=auto;html=1;exitX=0.5;exitY=1;exitDx=0;exitDy=0;exitPerimeter=0;entryX=0.5;entryY=0;entryDx=0;entryDy=0;" edge="1" parent="WIyWlLk6GJQsqaUBKTNV-1" source="KDvS2yM697CIPFRJHkad-4" target="KDvS2yM697CIPFRJHkad-6">
          <mxGeometry relative="1" as="geometry" />
        </mxCell>
        <mxCell id="KDvS2yM697CIPFRJHkad-47" value="No" style="edgeStyle=orthogonalEdgeStyle;rounded=0;orthogonalLoop=1;jettySize=auto;html=1;exitX=0;exitY=0.5;exitDx=0;exitDy=0;exitPerimeter=0;entryX=0.5;entryY=0;entryDx=0;entryDy=0;fillColor=#e51400;strokeColor=#B20000;" edge="1" parent="WIyWlLk6GJQsqaUBKTNV-1" source="KDvS2yM697CIPFRJHkad-4" target="KDvS2yM697CIPFRJHkad-21">
          <mxGeometry relative="1" as="geometry">
            <Array as="points">
              <mxPoint x="110" y="85" />
              <mxPoint x="110" y="720" />
              <mxPoint x="200" y="720" />
            </Array>
          </mxGeometry>
        </mxCell>
        <mxCell id="KDvS2yM697CIPFRJHkad-4" value="cnt &amp;lt; Selected cnt" style="strokeWidth=2;html=1;shape=mxgraph.flowchart.decision;whiteSpace=wrap;" vertex="1" parent="WIyWlLk6GJQsqaUBKTNV-1">
          <mxGeometry x="130" y="70" width="140" height="30" as="geometry" />
        </mxCell>
        <mxCell id="KDvS2yM697CIPFRJHkad-13" style="edgeStyle=orthogonalEdgeStyle;rounded=0;orthogonalLoop=1;jettySize=auto;html=1;exitX=0.5;exitY=1;exitDx=0;exitDy=0;" edge="1" parent="WIyWlLk6GJQsqaUBKTNV-1" source="KDvS2yM697CIPFRJHkad-6" target="KDvS2yM697CIPFRJHkad-8">
          <mxGeometry relative="1" as="geometry" />
        </mxCell>
        <mxCell id="KDvS2yM697CIPFRJHkad-6" value="Resource 정보 획득" style="rounded=1;whiteSpace=wrap;html=1;absoluteArcSize=1;arcSize=14;strokeWidth=2;" vertex="1" parent="WIyWlLk6GJQsqaUBKTNV-1">
          <mxGeometry x="145" y="120" width="110" height="20" as="geometry" />
        </mxCell>
        <mxCell id="KDvS2yM697CIPFRJHkad-16" style="edgeStyle=orthogonalEdgeStyle;rounded=0;orthogonalLoop=1;jettySize=auto;html=1;exitX=0.5;exitY=1;exitDx=0;exitDy=0;exitPerimeter=0;entryX=0.5;entryY=0;entryDx=0;entryDy=0;" edge="1" parent="WIyWlLk6GJQsqaUBKTNV-1" source="KDvS2yM697CIPFRJHkad-8" target="KDvS2yM697CIPFRJHkad-14">
          <mxGeometry relative="1" as="geometry" />
        </mxCell>
        <mxCell id="KDvS2yM697CIPFRJHkad-8" value="Project?" style="strokeWidth=2;html=1;shape=mxgraph.flowchart.decision;whiteSpace=wrap;" vertex="1" parent="WIyWlLk6GJQsqaUBKTNV-1">
          <mxGeometry x="165" y="160" width="70" height="20" as="geometry" />
        </mxCell>
        <mxCell id="KDvS2yM697CIPFRJHkad-73" style="edgeStyle=orthogonalEdgeStyle;rounded=0;orthogonalLoop=1;jettySize=auto;html=1;exitX=0.5;exitY=1;exitDx=0;exitDy=0;exitPerimeter=0;entryX=0.5;entryY=0;entryDx=0;entryDy=0;entryPerimeter=0;" edge="1" parent="WIyWlLk6GJQsqaUBKTNV-1" source="KDvS2yM697CIPFRJHkad-9" target="KDvS2yM697CIPFRJHkad-49">
          <mxGeometry relative="1" as="geometry" />
        </mxCell>
        <mxCell id="KDvS2yM697CIPFRJHkad-9" value="Folder?" style="strokeWidth=2;html=1;shape=mxgraph.flowchart.decision;whiteSpace=wrap;" vertex="1" parent="WIyWlLk6GJQsqaUBKTNV-1">
          <mxGeometry x="435" y="160" width="70" height="20" as="geometry" />
        </mxCell>
        <mxCell id="KDvS2yM697CIPFRJHkad-81" value="Yes" style="edgeStyle=orthogonalEdgeStyle;rounded=0;orthogonalLoop=1;jettySize=auto;html=1;exitX=0.5;exitY=1;exitDx=0;exitDy=0;exitPerimeter=0;entryX=0.5;entryY=0;entryDx=0;entryDy=0;" edge="1" parent="WIyWlLk6GJQsqaUBKTNV-1" source="KDvS2yM697CIPFRJHkad-10" target="KDvS2yM697CIPFRJHkad-79">
          <mxGeometry relative="1" as="geometry" />
        </mxCell>
        <mxCell id="KDvS2yM697CIPFRJHkad-10" value="File?" style="strokeWidth=2;html=1;shape=mxgraph.flowchart.decision;whiteSpace=wrap;" vertex="1" parent="WIyWlLk6GJQsqaUBKTNV-1">
          <mxGeometry x="1002.5" y="160" width="50" height="20" as="geometry" />
        </mxCell>
        <mxCell id="KDvS2yM697CIPFRJHkad-18" style="edgeStyle=orthogonalEdgeStyle;rounded=0;orthogonalLoop=1;jettySize=auto;html=1;exitX=0.5;exitY=1;exitDx=0;exitDy=0;" edge="1" parent="WIyWlLk6GJQsqaUBKTNV-1" source="KDvS2yM697CIPFRJHkad-14" target="KDvS2yM697CIPFRJHkad-17">
          <mxGeometry relative="1" as="geometry" />
        </mxCell>
        <mxCell id="KDvS2yM697CIPFRJHkad-14" value="LinkedHashMap :&lt;br&gt;Set Error Type : 0&lt;br&gt;Set Error Msg : 0" style="rounded=1;whiteSpace=wrap;html=1;absoluteArcSize=1;arcSize=14;strokeWidth=2;" vertex="1" parent="WIyWlLk6GJQsqaUBKTNV-1">
          <mxGeometry x="150" y="200" width="100" height="50" as="geometry" />
        </mxCell>
        <mxCell id="KDvS2yM697CIPFRJHkad-22" value="Yes" style="edgeStyle=orthogonalEdgeStyle;rounded=0;orthogonalLoop=1;jettySize=auto;html=1;exitX=0.5;exitY=1;exitDx=0;exitDy=0;exitPerimeter=0;entryX=0.5;entryY=0;entryDx=0;entryDy=0;" edge="1" parent="WIyWlLk6GJQsqaUBKTNV-1" source="KDvS2yM697CIPFRJHkad-17" target="KDvS2yM697CIPFRJHkad-21">
          <mxGeometry x="-0.3846" relative="1" as="geometry">
            <mxPoint as="offset" />
          </mxGeometry>
        </mxCell>
        <mxCell id="KDvS2yM697CIPFRJHkad-92" value="No" style="edgeStyle=orthogonalEdgeStyle;rounded=0;orthogonalLoop=1;jettySize=auto;html=1;exitX=1;exitY=0.5;exitDx=0;exitDy=0;exitPerimeter=0;entryX=1;entryY=0.5;entryDx=0;entryDy=0;entryPerimeter=0;" edge="1" parent="WIyWlLk6GJQsqaUBKTNV-1" source="KDvS2yM697CIPFRJHkad-17" target="KDvS2yM697CIPFRJHkad-4">
          <mxGeometry relative="1" as="geometry">
            <mxPoint x="320" y="655" as="targetPoint" />
            <Array as="points">
              <mxPoint x="1150" y="655" />
              <mxPoint x="1150" y="85" />
            </Array>
          </mxGeometry>
        </mxCell>
        <mxCell id="KDvS2yM697CIPFRJHkad-17" value="Error Type 0?&lt;br&gt;Or&lt;br&gt;Error Type 1?" style="strokeWidth=2;html=1;shape=mxgraph.flowchart.decision;whiteSpace=wrap;" vertex="1" parent="WIyWlLk6GJQsqaUBKTNV-1">
          <mxGeometry x="140" y="630" width="120" height="50" as="geometry" />
        </mxCell>
        <mxCell id="KDvS2yM697CIPFRJHkad-21" value="Return LinkedHashMap" style="verticalLabelPosition=bottom;verticalAlign=top;html=1;shape=process;whiteSpace=wrap;rounded=1;size=0.14;arcSize=6;" vertex="1" parent="WIyWlLk6GJQsqaUBKTNV-1">
          <mxGeometry x="150" y="750" width="100" height="20" as="geometry" />
        </mxCell>
        <mxCell id="KDvS2yM697CIPFRJHkad-100" style="edgeStyle=orthogonalEdgeStyle;rounded=0;orthogonalLoop=1;jettySize=auto;html=1;exitX=0;exitY=0.5;exitDx=0;exitDy=0;exitPerimeter=0;entryX=1;entryY=0.5;entryDx=0;entryDy=0;strokeColor=#000000;strokeWidth=5;" edge="1" parent="WIyWlLk6GJQsqaUBKTNV-1" source="KDvS2yM697CIPFRJHkad-35" target="KDvS2yM697CIPFRJHkad-21">
          <mxGeometry relative="1" as="geometry" />
        </mxCell>
        <mxCell id="KDvS2yM697CIPFRJHkad-35" value="LinkedHashMap : &lt;br&gt;key[&quot;error_type&quot;], value[0 : Resource, 1 : Project 미지원, 2 : Folder를 2개&amp;nbsp; 선택 미지원]&lt;br&gt;key[&quot;error_msg&quot;], value[0 : NULL, 1: &quot;Project 미지원&quot;, 2 : &quot;Folder는 1개만 지원&quot;]&lt;br&gt;key[&quot;resource&quot;], value[List&amp;lt;String&amp;gt;]" style="strokeWidth=2;html=1;shape=mxgraph.flowchart.annotation_2;align=left;labelPosition=right;pointerEvents=1;" vertex="1" parent="WIyWlLk6GJQsqaUBKTNV-1">
          <mxGeometry x="300" y="720" width="40" height="40" as="geometry" />
        </mxCell>
        <mxCell id="KDvS2yM697CIPFRJHkad-55" value="Yes" style="edgeStyle=orthogonalEdgeStyle;rounded=0;orthogonalLoop=1;jettySize=auto;html=1;exitX=0.5;exitY=1;exitDx=0;exitDy=0;exitPerimeter=0;entryX=0.5;entryY=0;entryDx=0;entryDy=0;" edge="1" parent="WIyWlLk6GJQsqaUBKTNV-1" source="KDvS2yM697CIPFRJHkad-42" target="KDvS2yM697CIPFRJHkad-44">
          <mxGeometry relative="1" as="geometry" />
        </mxCell>
        <mxCell id="KDvS2yM697CIPFRJHkad-42" value="cnt &amp;lt; in Selected cnt" style="strokeWidth=2;html=1;shape=mxgraph.flowchart.decision;whiteSpace=wrap;" vertex="1" parent="WIyWlLk6GJQsqaUBKTNV-1">
          <mxGeometry x="530" y="300" width="150" height="30" as="geometry" />
        </mxCell>
        <mxCell id="KDvS2yM697CIPFRJHkad-51" style="edgeStyle=orthogonalEdgeStyle;rounded=0;orthogonalLoop=1;jettySize=auto;html=1;exitX=0.5;exitY=1;exitDx=0;exitDy=0;entryX=0.5;entryY=0;entryDx=0;entryDy=0;entryPerimeter=0;" edge="1" parent="WIyWlLk6GJQsqaUBKTNV-1" source="KDvS2yM697CIPFRJHkad-44" target="KDvS2yM697CIPFRJHkad-50">
          <mxGeometry relative="1" as="geometry" />
        </mxCell>
        <mxCell id="KDvS2yM697CIPFRJHkad-44" value="Resource 정보 획득" style="rounded=1;whiteSpace=wrap;html=1;absoluteArcSize=1;arcSize=14;strokeWidth=2;" vertex="1" parent="WIyWlLk6GJQsqaUBKTNV-1">
          <mxGeometry x="550" y="370" width="110" height="20" as="geometry" />
        </mxCell>
        <mxCell id="KDvS2yM697CIPFRJHkad-54" value="Yes" style="edgeStyle=orthogonalEdgeStyle;rounded=0;orthogonalLoop=1;jettySize=auto;html=1;exitX=1;exitY=0.5;exitDx=0;exitDy=0;exitPerimeter=0;entryX=0.5;entryY=0;entryDx=0;entryDy=0;" edge="1" parent="WIyWlLk6GJQsqaUBKTNV-1" source="KDvS2yM697CIPFRJHkad-49" target="KDvS2yM697CIPFRJHkad-89">
          <mxGeometry relative="1" as="geometry" />
        </mxCell>
        <mxCell id="KDvS2yM697CIPFRJHkad-62" value="No" style="edgeStyle=orthogonalEdgeStyle;rounded=0;orthogonalLoop=1;jettySize=auto;html=1;exitX=0;exitY=0.5;exitDx=0;exitDy=0;exitPerimeter=0;fillColor=#e51400;strokeColor=#B20000;strokeWidth=5;entryX=0.5;entryY=0;entryDx=0;entryDy=0;" edge="1" parent="WIyWlLk6GJQsqaUBKTNV-1" source="KDvS2yM697CIPFRJHkad-49" target="KDvS2yM697CIPFRJHkad-60">
          <mxGeometry relative="1" as="geometry">
            <mxPoint x="340" y="250" as="targetPoint" />
          </mxGeometry>
        </mxCell>
        <mxCell id="KDvS2yM697CIPFRJHkad-49" value="boolean == true" style="strokeWidth=2;html=1;shape=mxgraph.flowchart.decision;whiteSpace=wrap;" vertex="1" parent="WIyWlLk6GJQsqaUBKTNV-1">
          <mxGeometry x="420" y="200" width="100" height="30" as="geometry" />
        </mxCell>
        <mxCell id="KDvS2yM697CIPFRJHkad-56" value="Yes" style="edgeStyle=orthogonalEdgeStyle;rounded=0;orthogonalLoop=1;jettySize=auto;html=1;exitX=0;exitY=0.5;exitDx=0;exitDy=0;exitPerimeter=0;entryX=0;entryY=0.5;entryDx=0;entryDy=0;entryPerimeter=0;" edge="1" parent="WIyWlLk6GJQsqaUBKTNV-1" source="KDvS2yM697CIPFRJHkad-50" target="KDvS2yM697CIPFRJHkad-42">
          <mxGeometry relative="1" as="geometry" />
        </mxCell>
        <mxCell id="KDvS2yM697CIPFRJHkad-64" value="No" style="edgeStyle=orthogonalEdgeStyle;rounded=0;orthogonalLoop=1;jettySize=auto;html=1;exitX=1;exitY=0.5;exitDx=0;exitDy=0;exitPerimeter=0;entryX=0;entryY=0.5;entryDx=0;entryDy=0;entryPerimeter=0;fillColor=#e51400;strokeColor=#B20000;strokeWidth=5;" edge="1" parent="WIyWlLk6GJQsqaUBKTNV-1" source="KDvS2yM697CIPFRJHkad-50" target="KDvS2yM697CIPFRJHkad-63">
          <mxGeometry relative="1" as="geometry" />
        </mxCell>
        <mxCell id="KDvS2yM697CIPFRJHkad-50" value="Folder?" style="strokeWidth=2;html=1;shape=mxgraph.flowchart.decision;whiteSpace=wrap;" vertex="1" parent="WIyWlLk6GJQsqaUBKTNV-1">
          <mxGeometry x="570" y="430" width="70" height="20" as="geometry" />
        </mxCell>
        <mxCell id="KDvS2yM697CIPFRJHkad-71" style="edgeStyle=orthogonalEdgeStyle;rounded=0;orthogonalLoop=1;jettySize=auto;html=1;exitX=0.5;exitY=1;exitDx=0;exitDy=0;entryX=0.5;entryY=0;entryDx=0;entryDy=0;entryPerimeter=0;" edge="1" parent="WIyWlLk6GJQsqaUBKTNV-1" source="KDvS2yM697CIPFRJHkad-60" target="KDvS2yM697CIPFRJHkad-17">
          <mxGeometry relative="1" as="geometry">
            <Array as="points">
              <mxPoint x="340" y="600" />
              <mxPoint x="200" y="600" />
            </Array>
          </mxGeometry>
        </mxCell>
        <mxCell id="KDvS2yM697CIPFRJHkad-60" value="LinkedHashMap :&lt;br&gt;Set Error Type : 1&lt;br&gt;Set Error Msg : 1" style="rounded=1;whiteSpace=wrap;html=1;absoluteArcSize=1;arcSize=14;strokeWidth=2;" vertex="1" parent="WIyWlLk6GJQsqaUBKTNV-1">
          <mxGeometry x="290" y="280" width="100" height="50" as="geometry" />
        </mxCell>
        <mxCell id="KDvS2yM697CIPFRJHkad-84" value="Yes" style="edgeStyle=orthogonalEdgeStyle;rounded=0;orthogonalLoop=1;jettySize=auto;html=1;exitX=0.5;exitY=1;exitDx=0;exitDy=0;exitPerimeter=0;entryX=0.5;entryY=0;entryDx=0;entryDy=0;" edge="1" parent="WIyWlLk6GJQsqaUBKTNV-1" source="KDvS2yM697CIPFRJHkad-63" target="KDvS2yM697CIPFRJHkad-82">
          <mxGeometry relative="1" as="geometry" />
        </mxCell>
        <mxCell id="KDvS2yM697CIPFRJHkad-63" value="File?" style="strokeWidth=2;html=1;shape=mxgraph.flowchart.decision;whiteSpace=wrap;" vertex="1" parent="WIyWlLk6GJQsqaUBKTNV-1">
          <mxGeometry x="742.5" y="430" width="50" height="20" as="geometry" />
        </mxCell>
        <mxCell id="KDvS2yM697CIPFRJHkad-87" style="edgeStyle=orthogonalEdgeStyle;rounded=0;orthogonalLoop=1;jettySize=auto;html=1;exitX=0.5;exitY=1;exitDx=0;exitDy=0;entryX=0.5;entryY=0;entryDx=0;entryDy=0;entryPerimeter=0;" edge="1" parent="WIyWlLk6GJQsqaUBKTNV-1" source="KDvS2yM697CIPFRJHkad-79" target="KDvS2yM697CIPFRJHkad-17">
          <mxGeometry relative="1" as="geometry">
            <mxPoint x="200" y="450" as="targetPoint" />
            <Array as="points">
              <mxPoint x="1028" y="600" />
              <mxPoint x="200" y="600" />
            </Array>
          </mxGeometry>
        </mxCell>
        <mxCell id="KDvS2yM697CIPFRJHkad-79" value="LinkedHashMap :&lt;br&gt;key : 부모 경로&lt;br&gt;value : resource List" style="rounded=1;whiteSpace=wrap;html=1;absoluteArcSize=1;arcSize=14;strokeWidth=2;" vertex="1" parent="WIyWlLk6GJQsqaUBKTNV-1">
          <mxGeometry x="970" y="270" width="115" height="50" as="geometry" />
        </mxCell>
        <mxCell id="KDvS2yM697CIPFRJHkad-85" style="edgeStyle=orthogonalEdgeStyle;rounded=0;orthogonalLoop=1;jettySize=auto;html=1;exitX=1;exitY=0.5;exitDx=0;exitDy=0;entryX=1;entryY=0.5;entryDx=0;entryDy=0;entryPerimeter=0;" edge="1" parent="WIyWlLk6GJQsqaUBKTNV-1" source="KDvS2yM697CIPFRJHkad-82" target="KDvS2yM697CIPFRJHkad-42">
          <mxGeometry relative="1" as="geometry" />
        </mxCell>
        <mxCell id="KDvS2yM697CIPFRJHkad-82" value="LinkedHashMap :&lt;br&gt;key : 부모 경로&lt;br&gt;value : resource List" style="rounded=1;whiteSpace=wrap;html=1;absoluteArcSize=1;arcSize=14;strokeWidth=2;" vertex="1" parent="WIyWlLk6GJQsqaUBKTNV-1">
          <mxGeometry x="710" y="510" width="115" height="50" as="geometry" />
        </mxCell>
        <mxCell id="KDvS2yM697CIPFRJHkad-90" style="edgeStyle=orthogonalEdgeStyle;rounded=0;orthogonalLoop=1;jettySize=auto;html=1;exitX=0.5;exitY=1;exitDx=0;exitDy=0;" edge="1" parent="WIyWlLk6GJQsqaUBKTNV-1" source="KDvS2yM697CIPFRJHkad-89" target="KDvS2yM697CIPFRJHkad-42">
          <mxGeometry relative="1" as="geometry" />
        </mxCell>
        <mxCell id="KDvS2yM697CIPFRJHkad-89" value="&#xa;&#xa;&lt;span style=&quot;color: rgb(0, 0, 0); font-family: helvetica; font-size: 12px; font-style: normal; font-weight: 400; letter-spacing: normal; text-align: center; text-indent: 0px; text-transform: none; word-spacing: 0px; background-color: rgb(248, 249, 250); display: inline; float: none;&quot;&gt;LinkedList :&lt;/span&gt;&lt;br style=&quot;color: rgb(0, 0, 0); font-family: helvetica; font-size: 12px; font-style: normal; font-weight: 400; letter-spacing: normal; text-align: center; text-indent: 0px; text-transform: none; word-spacing: 0px; background-color: rgb(248, 249, 250);&quot;&gt;&lt;span style=&quot;color: rgb(0, 0, 0); font-family: helvetica; font-size: 12px; font-style: normal; font-weight: 400; letter-spacing: normal; text-align: center; text-indent: 0px; text-transform: none; word-spacing: 0px; background-color: rgb(248, 249, 250); display: inline; float: none;&quot;&gt;Folder 경로&lt;/span&gt;&#xa;&#xa;" style="rounded=1;whiteSpace=wrap;html=1;absoluteArcSize=1;arcSize=14;strokeWidth=2;" vertex="1" parent="WIyWlLk6GJQsqaUBKTNV-1">
          <mxGeometry x="570" y="240" width="70" height="40" as="geometry" />
        </mxCell>
        <mxCell id="KDvS2yM697CIPFRJHkad-96" value="No" style="edgeStyle=orthogonalEdgeStyle;rounded=0;orthogonalLoop=1;jettySize=auto;html=1;exitX=0;exitY=0.5;exitDx=0;exitDy=0;exitPerimeter=0;entryX=0.5;entryY=0;entryDx=0;entryDy=0;fillColor=#e51400;strokeColor=#B20000;strokeWidth=5;" edge="1" parent="WIyWlLk6GJQsqaUBKTNV-1">
          <mxGeometry relative="1" as="geometry">
            <mxPoint x="130" y="85" as="sourcePoint" />
            <mxPoint x="200" y="750" as="targetPoint" />
            <Array as="points">
              <mxPoint x="110" y="85" />
              <mxPoint x="110" y="720" />
              <mxPoint x="200" y="720" />
            </Array>
          </mxGeometry>
        </mxCell>
        <mxCell id="KDvS2yM697CIPFRJHkad-97" value="No" style="edgeStyle=orthogonalEdgeStyle;rounded=0;orthogonalLoop=1;jettySize=auto;html=1;exitX=1;exitY=0.5;exitDx=0;exitDy=0;exitPerimeter=0;fillColor=#e51400;strokeColor=#B20000;strokeWidth=5;entryX=0;entryY=0.5;entryDx=0;entryDy=0;entryPerimeter=0;" edge="1" parent="WIyWlLk6GJQsqaUBKTNV-1" target="KDvS2yM697CIPFRJHkad-9">
          <mxGeometry relative="1" as="geometry">
            <mxPoint x="235" y="170" as="sourcePoint" />
            <mxPoint x="380" y="170" as="targetPoint" />
          </mxGeometry>
        </mxCell>
        <mxCell id="KDvS2yM697CIPFRJHkad-98" value="No" style="edgeStyle=orthogonalEdgeStyle;rounded=0;orthogonalLoop=1;jettySize=auto;html=1;exitX=1;exitY=0.5;exitDx=0;exitDy=0;exitPerimeter=0;fillColor=#e51400;strokeColor=#B20000;strokeWidth=5;entryX=0;entryY=0.5;entryDx=0;entryDy=0;entryPerimeter=0;" edge="1" parent="WIyWlLk6GJQsqaUBKTNV-1" target="KDvS2yM697CIPFRJHkad-10">
          <mxGeometry relative="1" as="geometry">
            <mxPoint x="505" y="170" as="sourcePoint" />
            <mxPoint x="900" y="170" as="targetPoint" />
          </mxGeometry>
        </mxCell>
      </root>
    </mxGraphModel>
  </diagram>
</mxfile>
